<svg width="191" height="191" viewBox="0 0 191 191" fill="none" xmlns="http://www.w3.org/2000/svg">
<g clip-path="url(#clip0_305_70073)">
<path d="M107.746 177.704C153.339 170.747 184.66 128.147 177.704 82.5541C170.747 36.9607 128.147 5.63926 82.5541 12.5957C36.9607 19.5521 5.6393 62.1521 12.5957 107.746C19.5521 153.339 62.1522 184.66 107.746 177.704Z" fill="url(#paint0_linear_305_70073)"/>
<g filter="url(#filter0_i_305_70073)">
<path d="M105.841 165.223C144.542 159.318 171.128 123.159 165.223 84.4581C159.318 45.7576 123.159 19.1714 84.4582 25.0761C45.7577 30.9808 19.1715 67.1405 25.0762 105.841C30.981 144.542 67.1407 171.128 105.841 165.223Z" fill="#FFCE26"/>
</g>
<g opacity="0.2">
<path d="M143.582 27.3118L39.7812 157.556C41.8233 159.384 43.9884 161.193 46.2579 162.861L150.163 32.4749C147.979 30.5426 145.833 28.8563 143.582 27.3118Z" fill="#FFE793"/>
<path d="M169.1 55.8905C165.786 49.8515 161.771 44.1711 157.111 39.2184L54.3721 168.168C60.3023 171.542 66.7541 174.208 73.3395 176.098L169.1 55.8905Z" fill="#FFE793"/>
<path d="M21.7427 134.255C25.1508 140.909 29.4684 146.921 34.4306 152.205L137.169 23.2557C130.814 19.5686 123.974 16.8364 116.877 14.8985L21.7427 134.255Z" fill="#FFE793"/>
</g>
<circle cx="95.3849" cy="94.8307" r="78.7455" transform="rotate(-8.67502 95.3849 94.8307)" stroke="#9B6208" stroke-width="2.24187" stroke-linecap="round" stroke-dasharray="0.56 6.73"/>
<path d="M139.584 78.4266L104.884 83.7209L89.1273 52.3589L83.44 86.9927L48.7212 92.29L79.9128 108.39L74.2284 143.043L99.1967 118.355L130.372 134.477L114.613 103.096L139.584 78.4266Z" fill="#AF2424"/>
<path opacity="0.5" d="M122.687 29.7533C131.318 39.5847 137.35 51.9145 139.468 65.7991C145.371 104.489 118.802 140.657 80.0862 146.564C66.6435 148.615 53.5057 146.735 41.8455 141.809C57.2675 159.358 81.0203 168.904 105.826 165.119C144.515 159.216 171.115 123.07 165.212 84.3805C161.355 59.1073 144.615 39.0193 122.687 29.7533Z" fill="#EDBD31"/>
<path opacity="0.7" d="M38.3287 110.391C33.1158 76.2252 56.5822 44.3088 90.7479 39.096C110.717 36.0492 129.92 42.8041 143.472 55.7691C129.957 38.8607 108.028 29.4088 85.0944 32.9078C50.9287 38.1207 27.4623 70.0371 32.6752 104.203C34.8412 118.399 41.621 130.748 51.2462 139.949C44.6354 131.672 40.0385 121.597 38.3287 110.391Z" fill="#F7DB5E"/>
<path opacity="0.8" d="M51.5685 149.794C61.8498 146.598 61.8691 138.683 61.8138 133.854C61.8138 133.854 63.7149 146.313 75.9469 146.075C64.3655 148.791 66.0406 161.557 66.0406 161.557C62.7243 155.01 62.949 150.228 51.5685 149.794Z" fill="white"/>
<path opacity="0.8" d="M110.316 27.3373C123.868 23.1211 123.891 12.6737 123.817 6.29931C123.817 6.29931 126.327 22.746 142.451 22.4342C127.185 26.0167 129.397 42.8669 129.397 42.8669C125.023 34.2242 125.318 27.9129 110.316 27.3373Z" fill="white"/>
</g>
<defs>
<filter id="filter0_i_305_70073" x="24.2559" y="24.2549" width="144.03" height="144.031" filterUnits="userSpaceOnUse" color-interpolation-filters="sRGB">
<feFlood flood-opacity="0" result="BackgroundImageFix"/>
<feBlend mode="normal" in="SourceGraphic" in2="BackgroundImageFix" result="shape"/>
<feColorMatrix in="SourceAlpha" type="matrix" values="0 0 0 0 0 0 0 0 0 0 0 0 0 0 0 0 0 0 127 0" result="hardAlpha"/>
<feOffset dx="2.24187" dy="4.48373"/>
<feGaussianBlur stdDeviation="1.12093"/>
<feComposite in2="hardAlpha" operator="arithmetic" k2="-1" k3="1"/>
<feColorMatrix type="matrix" values="0 0 0 0 0.9 0 0 0 0 0.699876 0 0 0 0 0.075 0 0 0 1 0"/>
<feBlend mode="normal" in2="shape" result="effect1_innerShadow_305_70073"/>
</filter>
<linearGradient id="paint0_linear_305_70073" x1="50.973" y1="17.4142" x2="130.424" y2="170.275" gradientUnits="userSpaceOnUse">
<stop stop-color="#F6D738"/>
<stop offset="0.646619" stop-color="#F39F18"/>
</linearGradient>
<clipPath id="clip0_305_70073">
<rect width="167.019" height="167.019" fill="white" transform="translate(0 25.1914) rotate(-8.67502)"/>
</clipPath>
</defs>
</svg>
