<svg width="138" height="62" viewBox="0 0 138 62" fill="none" xmlns="http://www.w3.org/2000/svg">
<g filter="url(#filter0_d_724_230667)">
<g filter="url(#filter1_d_724_230667)">
<mask id="mask0_724_230667" style="mask-type:luminance" maskUnits="userSpaceOnUse" x="0" y="0" width="136" height="60">
<path d="M135.378 0.833008H0.62207V59.3747H135.378V0.833008Z" fill="white"/>
</mask>
<g mask="url(#mask0_724_230667)">
<path d="M71.8019 40.3652H70.6887L67.874 47.2032H70.0594L70.4263 46.1352H73.0279L73.4051 47.2032H75.5904L73.1816 41.3365C72.911 40.6657 72.544 40.3652 71.7999 40.3652M71.0639 44.5322L71.7322 42.5794L72.4005 44.5322H71.066H71.0639Z" fill="white"/>
<path d="M80.5801 41.4518C80.5801 40.7233 80.2808 40.3838 79.5161 40.3838H78.4521V47.2033H82.8393L83.5199 45.4253H80.5801V41.4518Z" fill="white"/>
<path d="M86.3181 46.1352H88.9197L89.2969 47.2032H91.4822L89.0734 41.3365C88.8028 40.6657 88.4358 40.3652 87.6896 40.3652H86.5764L83.7617 47.2032H85.9471L86.314 46.1352H86.3181ZM87.624 42.5794L88.2923 44.5322H86.9578L87.6261 42.5794H87.624Z" fill="white"/>
<path d="M97.4985 47.2208L100.168 40.3828H97.9331L96.4427 44.8132L95.2824 41.3541C95.0507 40.6544 94.7412 40.3828 93.8986 40.3828H92.7178L95.3972 47.2208H97.4964H97.4985Z" fill="white"/>
<path d="M107.411 44.3173V40.3828H105.283V44.2494C105.283 44.7062 105.205 45.0354 105.041 45.2392C104.877 45.4429 104.596 45.5396 104.219 45.5396C103.842 45.5396 103.571 45.4429 103.407 45.2392C103.243 45.0354 103.155 44.7041 103.155 44.2494V41.4508C103.155 40.7223 102.856 40.3828 102.091 40.3828H101.027V44.3173C101.027 46.3174 102.091 47.3196 104.219 47.3196C106.347 47.3196 107.411 46.3195 107.411 44.3173Z" fill="white"/>
<path d="M113.552 45.4635H110.525V44.5025H112.158C112.884 44.5025 113.222 44.202 113.222 43.4345V42.9386H110.525V42.1216H113.542V40.3828H108.436V47.2023H113.552V45.4635Z" fill="white"/>
<path d="M119.738 45.4244H116.798V41.4508C116.798 40.7223 116.499 40.3828 115.734 40.3828H114.67V47.2023H119.738V45.4244Z" fill="white"/>
<path d="M120.923 47.2032H123.05V42.1513L124.881 42.1802L125.707 40.4043H119.01L118.864 42.1802L120.923 42.1513V47.2032Z" fill="white"/>
<path d="M126.568 47.1798L126.935 46.1118H129.537L129.914 47.1798H132.099L129.691 41.3131C129.42 40.6422 129.053 40.3418 128.307 40.3418H127.196L124.381 47.1798H126.566H126.568ZM128.241 42.556L128.909 44.5088H127.575L128.243 42.556H128.241Z" fill="white"/>
<path d="M71.3095 49.0264H67.9453V57.346H71.4345C74.0914 57.346 75.3788 55.7574 75.3788 53.1378C75.3788 50.5183 73.9643 49.0264 71.3074 49.0264M71.4325 55.2018H70.43V51.1726H71.3074C72.3447 51.1726 72.8921 51.8949 72.8921 53.1399C72.8921 54.3848 72.4021 55.2018 71.4325 55.2018Z" fill="white"/>
<path d="M78.5236 54.0516H80.4507C81.3056 54.0516 81.7053 53.6853 81.7053 52.7469V52.1419H78.5236V51.146H82.0805V49.0244H76.0615V57.344H82.0928V55.2224H78.5236V54.0495V54.0516Z" fill="white"/>
<path d="M84.6123 51.2177L87.0396 51.1827V57.3458H89.5488V51.1827L91.9761 51.2177V49.0488H84.6123V51.2177Z" fill="white"/>
<path d="M97.8086 53.7429C97.8086 54.3006 97.7184 54.7018 97.5236 54.9508C97.3289 55.1998 96.9988 55.3192 96.5539 55.3192C96.1091 55.3192 95.7893 55.1998 95.5966 54.9508C95.4018 54.7018 95.2993 54.2985 95.2993 53.7429V50.329C95.2993 49.4401 94.9467 49.0244 94.0447 49.0244H92.79V53.8231C92.79 56.2637 94.0447 57.486 96.5519 57.486C99.0591 57.486 100.314 56.2657 100.314 53.8231V49.0244H97.8045V53.7408L97.8086 53.7429Z" fill="white"/>
<path d="M107.085 54.4057L105.718 50.1872C105.445 49.3333 105.081 49.002 104.088 49.002H102.696L105.855 57.3442H108.33L111.477 49.002H108.842L107.085 54.4057Z" fill="white"/>
<path d="M113.487 49.0254H112.255V57.345H114.74V50.33C114.74 49.4411 114.385 49.0254 113.485 49.0254" fill="white"/>
<path d="M119.414 49.0264H116.05V57.346H119.539C122.196 57.346 123.483 55.7574 123.483 53.1378C123.483 50.5183 122.069 49.0264 119.412 49.0264M119.537 55.2018H118.534V51.1726H119.412C120.449 51.1726 120.997 51.8949 120.997 53.1399C120.997 54.3848 120.507 55.2018 119.537 55.2018Z" fill="white"/>
<path d="M127.629 49.0021H126.317L123 57.3443H125.577L126.009 56.0417H129.076L129.521 57.3443H132.098L129.259 50.1853C128.939 49.3683 128.506 49 127.629 49M126.762 54.0848L127.549 51.7019L128.336 54.0848H126.764H126.762Z" fill="white"/>
<path d="M132.229 31.8542C132.229 30.9797 132.936 30.2656 133.803 30.2656C134.67 30.2656 135.377 30.9776 135.377 31.8542C135.377 32.7308 134.67 33.4428 133.803 33.4428C132.936 33.4428 132.229 32.7308 132.229 31.8542ZM134.994 31.8542C134.994 31.1114 134.461 30.5743 133.803 30.5743C133.145 30.5743 132.612 31.1114 132.612 31.8542C132.612 32.5971 133.145 33.1342 133.803 33.1342C134.461 33.1342 134.994 32.5971 134.994 31.8542ZM133.196 30.9488H133.858C134.285 30.9488 134.516 31.099 134.516 31.4777C134.516 31.7863 134.342 31.9345 134.049 31.9612L134.529 32.7494H134.188L133.725 31.9756H133.524V32.7494H133.192V30.9488H133.196ZM133.528 31.7184H133.821C134.018 31.7184 134.188 31.6917 134.188 31.4488C134.188 31.239 133.996 31.2019 133.826 31.2019H133.528V31.7164V31.7184Z" fill="white"/>
<path d="M132.229 31.8542C132.229 30.9797 132.936 30.2656 133.803 30.2656C134.67 30.2656 135.377 30.9776 135.377 31.8542C135.377 32.7308 134.67 33.4428 133.803 33.4428C132.936 33.4428 132.229 32.7308 132.229 31.8542ZM134.994 31.8542C134.994 31.1114 134.461 30.5743 133.803 30.5743C133.145 30.5743 132.612 31.1114 132.612 31.8542C132.612 32.5971 133.145 33.1342 133.803 33.1342C134.461 33.1342 134.994 32.5971 134.994 31.8542ZM133.196 30.9488H133.858C134.285 30.9488 134.516 31.099 134.516 31.4777C134.516 31.7863 134.342 31.9345 134.049 31.9612L134.529 32.7494H134.188L133.725 31.9756H133.524V32.7494H133.192V30.9488H133.196ZM133.528 31.7184H133.821C134.018 31.7184 134.188 31.6917 134.188 31.4488C134.188 31.239 133.996 31.2019 133.826 31.2019H133.528V31.7164V31.7184Z" fill="white"/>
<path d="M132.071 30.2531C132.071 33.0599 129.804 35.3358 127.01 35.3358H73.0215C70.2273 35.3358 67.96 33.0599 67.96 30.2531V6.529C67.96 3.72219 70.2273 1.44629 73.0215 1.44629H127.01C129.804 1.44629 132.071 3.72425 132.071 6.529V30.2531Z" fill="white"/>
<path d="M127.014 3.14355H73.0298C71.1642 3.14355 69.6574 4.65808 69.6533 6.52654H130.39C130.386 4.65808 128.877 3.14355 127.014 3.14355Z" fill="#FFCE26"/>
<path d="M73.0132 33.6261H126.997C128.857 33.6261 130.37 32.1116 130.37 30.2432H69.6367C69.6408 32.1116 71.1497 33.6261 73.0132 33.6261Z" fill="#FFCE26"/>
<path d="M84.8482 18.4025C84.8482 15.5957 82.5809 13.3198 79.7866 13.3198C76.9924 13.3198 74.7251 15.5957 74.7251 18.4025C74.7251 21.2093 76.9924 23.4852 79.7866 23.4852C82.5809 23.4852 84.8482 21.2134 84.8482 18.4025ZM125.32 18.4025C125.32 15.5957 123.053 13.3198 120.259 13.3198C117.465 13.3198 115.193 15.5957 115.193 18.4025C115.193 21.2093 117.46 23.4852 120.259 23.4852C123.057 23.4852 125.32 21.2134 125.32 18.4025ZM128.693 18.4025C128.693 23.086 124.916 26.8764 120.259 26.8764C115.601 26.8764 111.821 23.0839 111.821 18.4025C111.821 13.721 115.597 9.93267 120.259 9.93267C124.921 9.93267 128.693 13.7251 128.693 18.4025ZM88.2247 18.4025C88.2247 23.086 84.4444 26.8764 79.7866 26.8764C75.1289 26.8764 71.3527 23.0839 71.3527 18.4025C71.3527 13.721 75.1289 9.93267 79.7866 9.93267C84.4444 9.93267 88.2247 13.7251 88.2247 18.4025ZM130.398 28.5555V8.22266H118.852C117.602 8.23295 115.027 8.47782 112.464 11.4863L107.12 18.5157L111.487 24.1272C112.061 24.8639 111.927 25.9298 111.195 26.5019C110.464 27.0781 109.4 26.9505 108.826 26.2138L104.978 21.2648L102.073 24.9956L102.046 25.0306L101.134 26.2097C100.898 26.5122 100.586 26.7097 100.242 26.8044C99.748 26.934 99.2006 26.8435 98.764 26.5039C98.2884 26.1294 98.069 25.5532 98.1264 24.9894C98.1613 24.6849 98.272 24.3824 98.477 24.1251L100.105 22.0283L102.835 18.5157L101.015 16.1533L103.11 13.3465L104.98 15.7644L109.555 9.92032C109.683 9.75776 110.576 8.43255 111.536 8.22266H69.6553V28.5555H81.5989C82.9499 28.4732 85.2521 27.9732 87.5481 25.2796L92.8926 18.2502L88.526 12.6386C87.952 11.902 88.0811 10.834 88.8171 10.2619C89.549 9.68573 90.6089 9.81332 91.1829 10.55L95.0349 15.499L97.9357 11.7682L97.9665 11.7291L98.8849 10.5541C99.1166 10.2537 99.4323 10.0541 99.7767 9.95942C100.269 9.82566 100.818 9.92032 101.251 10.2599C101.722 10.6344 101.946 11.2105 101.884 11.7744C101.853 12.081 101.739 12.3814 101.538 12.6386L99.914 14.7355L97.1752 18.2481L99.0264 20.6249L96.9271 23.4317L95.037 20.9994L90.4551 26.8435C90.3301 27.0101 89.3768 28.4094 88.3866 28.5514H130.404L130.398 28.5555Z" fill="#DD2826"/>
<path d="M53.9025 28.1932V26.2321H55.0854C56.1227 26.2321 56.9653 25.3864 56.9653 24.3452V17.9249C56.9653 16.8837 56.1227 16.0379 55.0854 16.0379H35.3639L35.3803 2.46071C35.3803 2.02446 35.2163 1.61908 34.915 1.31659C34.6115 1.00998 34.1892 0.833008 33.7567 0.833008C33.3241 0.833008 32.9162 1.00792 32.6086 1.32482L23.3035 10.9161L1.08704 33.6525C0.623726 34.1278 0.494573 34.8028 0.75083 35.416C1.00709 36.0292 1.57905 36.4099 2.24122 36.4099H23.0062V39.3052C23.0062 40.1242 23.6684 40.7888 24.4843 40.7888H27.0161C27.0038 40.8115 24.4597 46.3922 24.4597 46.3922C24.2383 47.0095 24.3592 47.6742 24.7795 48.1721C25.128 48.5837 25.6344 48.8203 26.1694 48.8203L36.3705 48.8162L33.769 50.4892C33.318 50.7793 33.0105 51.2506 32.9264 51.7815C32.8424 52.3124 32.9879 52.8556 33.3262 53.2713C36.4791 57.1482 41.141 59.3706 46.1205 59.3706C46.5285 59.3706 46.9426 59.3562 47.3506 59.3253C51.5409 59.0187 55.4073 57.1585 58.2404 54.0924C61.0716 51.0283 62.6317 47.0157 62.6317 42.7972C62.6317 36.4819 59.0933 30.9835 53.9025 28.187" fill="white"/>
<path d="M23.2476 28.1217H16.8822L23.2476 21.7426V13.6699L2.87012 34.5255H23.2476V28.1217Z" fill="#DD2826"/>
<path d="M24.8857 11.9906V38.9043L33.455 38.9063L33.5001 3.11133L24.8857 11.9906Z" fill="#FFCE26"/>
<path d="M43.6478 28.1289H24.8857V34.5245H43.6478V28.1289Z" fill="#DD2826"/>
<path d="M55.0852 17.9248H35.0869V28.1293H43.6643L43.6582 24.3451H55.0852V17.9248Z" fill="#FFCE26"/>
<path d="M46.1201 28.1173C45.8802 28.1173 45.5707 28.1255 45.2857 28.1379V34.5293C45.5932 34.5005 45.9356 34.4841 46.2021 34.4841C50.4211 34.4841 53.8406 38.2066 53.8406 42.8016C53.8406 47.3966 50.4211 51.1191 46.2021 51.1191C43.9552 51.1191 41.9339 50.0614 40.5378 48.3782L34.7812 52.0822C37.4627 55.3808 41.5464 57.4879 46.118 57.4879C54.1973 57.4879 60.7493 50.9133 60.7493 42.8016C60.7493 34.6898 54.1993 28.1152 46.118 28.1152" fill="#DD2826"/>
<path d="M28.6539 41.5273H28.8938C28.9963 41.5273 29.066 41.5706 29.0988 41.6549L31.5158 46.964C31.5384 47.0113 31.5322 47.0545 31.4994 47.0916C31.4666 47.1286 31.4256 47.1471 31.3805 47.1471H30.0787C29.9762 47.1471 29.9065 47.108 29.8737 47.0278L29.763 46.75C29.7179 46.6656 29.6544 46.6224 29.5744 46.6224H27.9897C27.8975 46.6224 27.836 46.6656 27.8011 46.75L27.6904 47.0278C27.6453 47.108 27.5756 47.1471 27.4854 47.1471H26.1734C26.1283 47.1471 26.0893 47.1286 26.0586 47.0916C26.0278 47.0545 26.0196 47.0113 26.0381 46.964L28.4551 41.6549C28.5002 41.5706 28.5699 41.5273 28.6601 41.5273M28.3526 45.4515C28.3403 45.4721 28.3423 45.4947 28.3567 45.5153C28.371 45.5359 28.3895 45.5462 28.412 45.5462H29.148C29.1767 45.5462 29.1972 45.5359 29.2075 45.5153C29.2177 45.4947 29.2177 45.4721 29.2075 45.4515L28.8384 44.5914C28.8261 44.5646 28.8077 44.5523 28.779 44.5523C28.7503 44.5523 28.7298 44.5646 28.7195 44.5914L28.3505 45.4515H28.3526Z" fill="#DD2826"/>
<path d="M31.9627 41.5706C31.9975 41.5418 32.0365 41.5274 32.0816 41.5274H32.2353C32.2989 41.5274 32.3501 41.5459 32.3891 41.583L35.2776 44.1613C35.294 44.1778 35.3186 44.1819 35.3494 44.1778C35.3801 44.1716 35.3965 44.1531 35.3965 44.1222V41.6797C35.3965 41.5788 35.4519 41.5295 35.5585 41.5295H36.8008C36.8459 41.5295 36.8869 41.5439 36.9197 41.5727C36.9546 41.6015 36.971 41.6385 36.971 41.6797V46.9949C36.971 47.0381 36.9546 47.0731 36.9197 47.1019C36.8848 47.1307 36.8459 47.1451 36.8008 47.1451H36.6286C36.5548 47.1451 36.4933 47.1204 36.4482 47.0731L33.6109 44.4782C33.5884 44.4577 33.5617 44.4515 33.533 44.4618C33.5043 44.4721 33.49 44.4947 33.49 44.5256V46.9928C33.49 47.0361 33.4736 47.071 33.4428 47.0999C33.4121 47.1287 33.3731 47.1431 33.326 47.1431H32.0754C32.0303 47.1431 31.9893 47.1287 31.9565 47.0999C31.9217 47.071 31.9053 47.034 31.9053 46.9928V41.6776C31.9053 41.6344 31.9217 41.5994 31.9565 41.5706M34.964 40.1898C35.0952 40.1898 35.2346 40.1446 35.3842 40.054C35.4765 40.0067 35.5441 40.0211 35.5892 40.1014L35.8803 40.5314C35.9254 40.6014 35.9172 40.659 35.8557 40.7063C35.6036 40.9656 35.3063 41.0953 34.964 41.0953C34.7692 41.0953 34.5703 41.0479 34.3653 40.9512C34.2157 40.8771 34.0886 40.8401 33.9799 40.8401C33.8426 40.8401 33.7175 40.8751 33.6027 40.943C33.5166 40.9862 33.451 40.9677 33.4059 40.8874L33.1148 40.4574C33.0738 40.3874 33.0841 40.3318 33.1394 40.2907C33.3793 40.052 33.6601 39.9326 33.9799 39.9326C34.1747 39.9326 34.3735 39.9799 34.5806 40.0767C34.7528 40.1507 34.8799 40.1878 34.966 40.1878" fill="#DD2826"/>
<path d="M37.7129 44.1059C37.7129 43.326 37.9835 42.6881 38.5268 42.1922C39.07 41.6963 39.767 41.4473 40.6178 41.4473C41.4686 41.4473 42.1656 41.6963 42.7089 42.1922C43.2521 42.6881 43.5227 43.326 43.5227 44.1059V44.5669C43.5227 45.3529 43.2521 45.9908 42.7089 46.4847C42.1656 46.9786 41.4686 47.2255 40.6178 47.2255C39.767 47.2255 39.07 46.9786 38.5268 46.4847C37.9835 45.9908 37.7129 45.3509 37.7129 44.5669V44.1059ZM39.316 44.5669C39.316 44.9866 39.4308 45.3077 39.6625 45.5299C39.8941 45.7521 40.2119 45.8633 40.6178 45.8633C41.0237 45.8633 41.3415 45.7521 41.5731 45.5299C41.8048 45.3077 41.9196 44.9866 41.9196 44.5669V44.1059C41.9196 43.6985 41.8027 43.3795 41.5731 43.1511C41.3415 42.9227 41.0237 42.8095 40.6178 42.8095C40.2119 42.8095 39.8941 42.9227 39.6625 43.1511C39.4308 43.3795 39.316 43.6985 39.316 44.1059V44.5669Z" fill="#DD2826"/>
<path d="M48.0903 42.0439C48.1764 42.1077 48.1867 42.1777 48.1252 42.2518L47.379 43.1592C47.3503 43.1963 47.3113 43.2168 47.26 43.2189C47.2088 43.221 47.1637 43.2066 47.1227 43.1757C46.8828 42.9802 46.6163 42.8814 46.3252 42.8814C46.1428 42.8814 45.9993 42.9144 45.8927 42.9761C45.7861 43.0399 45.7348 43.1304 45.7348 43.2457V43.2539C45.7348 43.3856 45.8168 43.4864 45.9788 43.5564C46.1407 43.6263 46.438 43.6943 46.8664 43.7642C47.9919 43.935 48.5536 44.4597 48.5536 45.3405V45.3734C48.5536 45.9516 48.3261 46.4043 47.8689 46.7336C47.4118 47.0628 46.8234 47.2275 46.1038 47.2275C45.7615 47.2275 45.4027 47.1678 45.0275 47.0484C44.6524 46.9291 44.3182 46.7624 44.021 46.5504C43.9287 46.4867 43.9185 46.4126 43.9861 46.3282L44.7405 45.4043C44.7631 45.3775 44.8 45.361 44.8471 45.3569C44.8963 45.3508 44.9373 45.3631 44.9722 45.3878C45.3371 45.6738 45.7205 45.8179 46.1202 45.8179C46.4052 45.8179 46.6081 45.7788 46.7291 45.7026C46.848 45.6265 46.9095 45.5339 46.9095 45.429V45.4043C46.9095 45.2602 46.8398 45.1614 46.7004 45.1059C46.561 45.0503 46.2842 44.9845 45.8742 44.9104C45.8394 44.9042 45.8148 44.9001 45.7963 44.8939C45.3802 44.8137 45.0911 44.7375 44.9312 44.6635C44.3941 44.4145 44.1255 43.9494 44.1255 43.2703V43.2395C44.1255 42.6983 44.3285 42.2641 44.7344 41.939C45.1403 41.6118 45.6774 41.4492 46.3457 41.4492C46.9689 41.4492 47.5512 41.6488 48.0944 42.046" fill="#DD2826"/>
</g>
</g>
</g>
<defs>
<filter id="filter0_d_724_230667" x="0" y="0" width="138" height="62" filterUnits="userSpaceOnUse" color-interpolation-filters="sRGB">
<feFlood flood-opacity="0" result="BackgroundImageFix"/>
<feColorMatrix in="SourceAlpha" type="matrix" values="0 0 0 0 0 0 0 0 0 0 0 0 0 0 0 0 0 0 127 0" result="hardAlpha"/>
<feOffset dx="2" dy="2"/>
<feComposite in2="hardAlpha" operator="out"/>
<feColorMatrix type="matrix" values="0 0 0 0 0 0 0 0 0 0 0 0 0 0 0 0 0 0 0.25 0"/>
<feBlend mode="normal" in2="BackgroundImageFix" result="effect1_dropShadow_724_230667"/>
<feBlend mode="normal" in="SourceGraphic" in2="effect1_dropShadow_724_230667" result="shape"/>
</filter>
<filter id="filter1_d_724_230667" x="0.62207" y="0.833008" width="135.755" height="59.5371" filterUnits="userSpaceOnUse" color-interpolation-filters="sRGB">
<feFlood flood-opacity="0" result="BackgroundImageFix"/>
<feColorMatrix in="SourceAlpha" type="matrix" values="0 0 0 0 0 0 0 0 0 0 0 0 0 0 0 0 0 0 127 0" result="hardAlpha"/>
<feOffset dx="1" dy="1"/>
<feComposite in2="hardAlpha" operator="out"/>
<feColorMatrix type="matrix" values="0 0 0 0 0.491667 0 0 0 0 0.131111 0 0 0 0 0.131111 0 0 0 1 0"/>
<feBlend mode="normal" in2="BackgroundImageFix" result="effect1_dropShadow_724_230667"/>
<feBlend mode="normal" in="SourceGraphic" in2="effect1_dropShadow_724_230667" result="shape"/>
</filter>
</defs>
</svg>
