<svg width="24" height="24" viewBox="0 0 24 24" fill="none" xmlns="http://www.w3.org/2000/svg">
<mask id="mask0_704_22960" style="mask-type:alpha" maskUnits="userSpaceOnUse" x="0" y="0" width="24" height="24">
<rect width="24" height="24" fill="#D9D9D9"/>
</mask>
<g mask="url(#mask0_704_22960)">
<path d="M18.8687 20L16.4242 17.5556C16.0875 17.771 15.7306 17.9562 15.3535 18.1111C14.9764 18.266 14.5859 18.3906 14.1818 18.4848V16.8283C14.3704 16.7609 14.5556 16.6936 14.7374 16.6263C14.9192 16.5589 15.0909 16.4781 15.2525 16.3838L12.5657 13.697V17.899L8.52525 13.8586H5.29293V9.0101H7.87879L4 5.13131L5.13131 4L20 18.8687L18.8687 20ZM18.7071 15.3131L17.5354 14.1414C17.7643 13.7239 17.936 13.2862 18.0505 12.8283C18.165 12.3704 18.2222 11.899 18.2222 11.4141C18.2222 10.1481 17.8519 9.01683 17.1111 8.0202C16.3704 7.02357 15.3939 6.35017 14.1818 6V4.34343C15.8519 4.72054 17.2121 5.56566 18.2626 6.87879C19.3131 8.19192 19.8384 9.7037 19.8384 11.4141C19.8384 12.1279 19.7407 12.8148 19.5455 13.4747C19.3502 14.1347 19.0707 14.7475 18.7071 15.3131ZM16 12.6061L14.1818 10.7879V8.16162C14.8148 8.45791 15.3098 8.90236 15.6667 9.49495C16.0236 10.0875 16.202 10.734 16.202 11.4343C16.202 11.6364 16.1852 11.835 16.1515 12.0303C16.1178 12.2256 16.0673 12.4175 16 12.6061ZM12.5657 9.17172L10.4646 7.07071L12.5657 4.9697V9.17172ZM10.9495 13.9798V12.0808L9.49495 10.6263H6.90909V12.2424H9.21212L10.9495 13.9798Z" fill="#5C1720"/>
</g>
</svg>
