<svg width="233" height="288" viewBox="0 0 233 288" fill="none" xmlns="http://www.w3.org/2000/svg">
<g filter="url(#filter0_d_305_66383)">
<rect x="158" y="18.75" width="100.409" height="222.739" transform="rotate(45 158 18.75)" fill="#AF2424"/>
<rect x="171.75" width="29.3449" height="217.082" transform="rotate(45 171.75 0)" fill="#FE2739"/>
<path d="M176 60.25C176 59.4216 176.672 58.75 177.5 58.75H227.5C228.328 58.75 229 59.4216 229 60.25C229 61.0784 228.328 61.75 227.5 61.75H177.5C176.672 61.75 176 61.0784 176 60.25Z" fill="#FFCE26"/>
<path d="M4 193.25C4 192.422 4.67157 191.75 5.5 191.75H55.5C56.3284 191.75 57 192.422 57 193.25C57 194.078 56.3284 194.75 55.5 194.75H5.5C4.67157 194.75 4 194.078 4 193.25Z" fill="#FFCE26"/>
<rect x="196.5" y="121.25" width="33.234" height="195.869" transform="rotate(45 196.5 121.25)" fill="#5C1720"/>
<rect x="136.25" y="165" width="96.1665" height="12" transform="rotate(-45 136.25 165)" fill="white"/>
</g>
<g clip-path="url(#clip0_305_66383)">
<path d="M80.4479 171.356C100.103 168.357 113.605 149.993 110.606 130.338C107.607 110.683 89.2429 97.1807 69.5882 100.18C49.9334 103.178 36.431 121.543 39.4299 141.198C42.4287 160.852 60.7931 174.355 80.4479 171.356Z" fill="url(#paint0_linear_305_66383)"/>
<g filter="url(#filter1_i_305_66383)">
<path d="M79.627 165.976C96.3104 163.43 107.771 147.842 105.226 131.159C102.68 114.476 87.0924 103.014 70.4091 105.56C53.7257 108.105 42.2647 123.693 44.8102 140.377C47.3556 157.06 62.9437 168.521 79.627 165.976Z" fill="#FFCE26"/>
</g>
<g opacity="0.2">
<path d="M95.896 106.523L51.1487 162.67C52.029 163.458 52.9624 164.238 53.9407 164.957L98.733 108.749C97.7915 107.916 96.8662 107.189 95.896 106.523Z" fill="#FFE793"/>
<path d="M106.897 118.843C105.468 116.24 103.737 113.791 101.729 111.656L57.4391 167.245C59.9956 168.699 62.7769 169.849 65.6158 170.663L106.897 118.843Z" fill="#FFE793"/>
<path d="M43.3727 152.626C44.8419 155.494 46.7032 158.086 48.8423 160.364L93.1319 104.775C90.392 103.186 87.4434 102.008 84.3842 101.172L43.3727 152.626Z" fill="#FFE793"/>
</g>
<circle cx="75.1195" cy="135.63" r="33.9463" transform="rotate(-8.67502 75.1195 135.63)" stroke="#9B6208" stroke-width="0.966443" stroke-linecap="round" stroke-dasharray="0.24 2.9"/>
<path d="M93.9321 128.382L78.9733 130.664L72.1808 117.144L69.7291 132.074L54.7622 134.358L68.2086 141.299L65.7581 156.237L76.5216 145.594L89.9611 152.544L83.1673 139.016L93.9321 128.382Z" fill="#AF2424"/>
<path opacity="0.5" d="M86.8887 107.576C90.6093 111.814 93.2096 117.129 94.1228 123.115C96.6676 139.794 85.2139 155.385 68.5239 157.932C62.7289 158.816 57.0653 158.005 52.0387 155.882C58.687 163.447 68.9266 167.562 79.6198 165.931C96.2986 163.386 107.765 147.804 105.22 131.125C103.558 120.23 96.3414 111.57 86.8887 107.576Z" fill="#EDBD31"/>
<path opacity="0.7" d="M50.5233 142.338C48.2761 127.61 58.3922 113.851 73.1206 111.604C81.7291 110.291 90.0072 113.203 95.8493 118.792C90.0231 111.503 80.5697 107.428 70.6835 108.936C55.955 111.184 45.8389 124.942 48.0861 139.671C49.0199 145.791 51.9426 151.114 56.0919 155.081C53.2421 151.512 51.2604 147.169 50.5233 142.338Z" fill="#F7DB5E"/>
<path opacity="0.8" d="M56.2308 159.324C60.6629 157.947 60.6712 154.535 60.6474 152.453C60.6474 152.453 61.4669 157.824 66.74 157.721C61.7474 158.892 62.4695 164.395 62.4695 164.395C61.0399 161.573 61.1368 159.511 56.2308 159.324Z" fill="white"/>
<path opacity="0.8" d="M81.5558 106.535C87.398 104.718 87.408 100.214 87.376 97.4659C87.376 97.4659 88.4578 104.556 95.4089 104.421C88.8279 105.966 89.7812 113.23 89.7812 113.23C87.8959 109.504 88.023 106.783 81.5558 106.535Z" fill="white"/>
</g>
<g filter="url(#filter2_d_305_66383)">
<path d="M152.44 182.918C161.519 184.182 169.904 177.846 171.168 168.766C172.432 159.687 166.096 151.302 157.016 150.038C147.937 148.774 139.552 155.11 138.288 164.19C137.024 173.269 143.36 181.654 152.44 182.918Z" fill="url(#paint1_linear_305_66383)"/>
<g filter="url(#filter3_i_305_66383)">
<path d="M152.786 180.432C160.493 181.505 167.61 176.127 168.683 168.42C169.755 160.713 164.377 153.596 156.67 152.523C148.963 151.451 141.846 156.829 140.774 164.536C139.701 172.242 145.079 179.36 152.786 180.432Z" fill="#FFCE26"/>
</g>
<g opacity="0.2">
<path d="M167.805 156.306L140.638 175.221C140.924 175.685 141.233 176.153 141.571 176.599L168.766 157.663C168.459 157.171 168.146 156.728 167.805 156.306Z" fill="#FFE793"/>
<path d="M171.044 163.199C170.755 161.86 170.313 160.55 169.707 159.342L142.816 178.071C143.754 179.05 144.831 179.924 145.978 180.658L171.044 163.199Z" fill="#FFE793"/>
<path d="M138.525 169.759C138.797 171.22 139.278 172.61 139.923 173.898L166.814 155.17C165.813 154.106 164.665 153.198 163.424 152.426L138.525 169.759Z" fill="#FFE793"/>
</g>
<circle cx="154.791" cy="166.43" r="15.6515" transform="rotate(7.92377 154.791 166.43)" stroke="#9B6208" stroke-width="0.445595" stroke-linecap="round" stroke-dasharray="0.11 1.34"/>
<path d="M164.4 166.159L157.489 165.197L156.269 158.329L153.219 164.603L146.305 163.641L151.332 168.478L148.282 174.756L154.44 171.471L159.462 176.312L158.242 169.44L164.4 166.159Z" fill="#AF2424"/>
<path opacity="0.5" d="M163.686 155.585C164.772 157.948 165.221 160.639 164.836 163.404C163.763 171.109 156.649 176.49 148.939 175.417C146.262 175.044 143.866 173.94 141.925 172.34C143.866 176.558 147.848 179.725 152.788 180.412C160.493 181.485 167.612 176.11 168.684 168.405C169.385 163.372 167.337 158.595 163.686 155.585Z" fill="#EDBD31"/>
<path opacity="0.7" d="M143.039 166.155C143.986 159.351 150.268 154.604 157.072 155.551C161.049 156.105 164.323 158.482 166.168 161.721C164.554 157.733 160.914 154.687 156.347 154.051C149.543 153.104 143.261 157.851 142.314 164.655C141.92 167.482 142.511 170.219 143.822 172.519C143.032 170.567 142.729 168.387 143.039 166.155Z" fill="#F7DB5E"/>
</g>
<path opacity="0.8" d="M143.324 174.412C145.464 174.387 145.917 172.881 146.181 171.958C146.181 171.958 145.836 174.439 148.179 175.088C145.819 174.948 145.413 177.474 145.413 177.474C145.153 176.039 145.468 175.141 143.324 174.412Z" fill="white"/>
<path opacity="0.8" d="M161.467 154.423C164.288 154.389 164.886 152.401 165.234 151.182C165.234 151.182 164.778 154.457 167.867 155.314C164.756 155.129 164.22 158.464 164.22 158.464C163.878 156.57 164.292 155.384 161.467 154.423Z" fill="white"/>
<path opacity="0.5" d="M94.4799 107.948C98.6961 112.751 101.643 118.774 102.678 125.557C105.562 144.458 92.5818 162.127 73.6681 165.013C67.101 166.015 60.6828 165.097 54.9865 162.69C62.5206 171.263 74.1245 175.927 86.2425 174.078C105.143 171.194 118.138 153.536 115.254 134.635C113.37 122.288 105.192 112.475 94.4799 107.948Z" fill="#644D0A"/>
<g filter="url(#filter4_d_305_66383)">
<path d="M116.34 133.395C109.8 134.083 103.884 136.542 98.9983 140.27L99.177 141.967L134.892 138.208L134.714 136.511C129.179 133.88 122.881 132.706 116.34 133.395Z" fill="#FFCE26"/>
<path d="M139.64 137.71L94.4688 142.464L97.4461 170.752L142.617 165.998L139.64 137.71Z" fill="#97512C"/>
<path d="M145.73 165.671L94.3135 171.082L94.7643 175.366L146.18 169.954L145.73 165.671Z" fill="#7C3E25"/>
<path d="M116.98 105.226C115.921 105.757 114.744 106.12 113.483 106.253C112.222 106.385 110.996 106.275 109.849 105.976L109.847 105.957C109.627 103.864 108.391 101.779 106.222 100.47L106.181 100.455C98.671 96.4747 92.3233 90.4765 87.9017 83.0979C80.2244 70.3336 75.1388 55.6999 73.4746 39.8877L138.799 33.0124C140.463 48.8246 138.535 64.1965 133.664 78.2814C130.893 86.3971 125.914 93.5875 119.399 99.0634L119.362 99.0873C117.534 100.836 116.758 103.114 116.98 105.226Z" fill="#FFCE26"/>
<path d="M116.467 105.459C116.675 107.433 117.716 109 119.224 110.079C119.742 110.463 120.104 111.064 120.179 111.774C120.318 113.097 119.349 114.297 118.029 114.436C118.009 114.438 117.99 114.44 117.95 114.444L110.76 115.201C110.74 115.203 110.721 115.205 110.681 115.209C109.361 115.348 108.163 114.376 108.024 113.054C107.949 112.343 108.181 111.7 108.606 111.196C109.858 109.847 110.55 108.097 110.34 106.104L116.467 105.459Z" fill="#FFCE26"/>
<path d="M122.644 134.808C120.773 135.584 118.756 136.096 116.648 136.317C114.54 136.539 112.458 136.439 110.469 136.089L110.483 136.028L110.063 132.041C111.204 128.308 111.616 124.273 111.182 120.147C111.003 118.449 110.691 116.806 110.242 115.196L118.516 114.325C118.411 115.973 118.449 117.665 118.628 119.363C119.062 123.489 120.305 127.35 122.198 130.763L122.618 134.751L122.644 134.808Z" fill="#FFDB31"/>
<path d="M89.6461 101.375C87.9913 101.549 86.3136 101.127 84.9385 100.174C83.8227 99.4134 83.5425 97.886 84.3209 96.7662C85.0797 95.6485 86.6038 95.3683 87.7217 96.1488C88.0224 96.3567 88.5046 96.5854 89.135 96.519C90.2972 96.3967 91.1431 95.3496 91.0205 94.1849C91.0039 94.027 90.9655 93.8514 90.9095 93.6976C90.452 92.5682 89.7094 91.5686 88.773 90.8089C88.5179 90.6561 88.3198 90.4773 88.2089 90.3693L64.785 72.576C57.0323 66.6657 50.7585 56.8275 54.2436 48.1177C55.7256 44.409 59.2037 41.6878 63.1311 41.1546C63.1902 41.1484 63.2493 41.1422 63.3084 41.136L63.5054 41.1152C63.5645 41.109 63.6236 41.1028 63.6827 41.0966C69.5937 40.674 74.8327 45.0326 75.4581 50.9745C75.749 53.7382 75.003 56.4912 73.3455 58.7215C72.5432 59.8039 71.015 60.0446 69.9126 59.2225C68.8321 58.4181 68.5912 56.8866 69.4111 55.7824C70.3368 54.5473 70.7522 53.0067 70.5902 51.4669C70.237 48.111 67.2514 45.6709 63.9159 45.962C61.6567 46.2597 59.6487 47.8083 58.7968 49.9338C56.2723 56.2272 61.6759 64.0413 67.7382 68.6526L91.2274 86.4988C91.2927 86.5518 91.358 86.6048 91.4016 86.6402C91.4648 86.6734 91.5302 86.7264 91.5737 86.7618C93.3273 88.0941 94.6693 89.8689 95.4629 91.921C95.465 91.9408 95.4868 91.9585 95.4889 91.9782C95.6849 92.5164 95.824 93.0806 95.8843 93.6531C96.2894 97.5025 93.4875 100.971 89.6461 101.375Z" fill="#FFCE26"/>
<path d="M128.093 90.2632C128.033 89.6907 128.051 89.1099 128.131 88.5427C128.129 88.523 128.147 88.5011 128.145 88.4814C128.496 86.3288 129.456 84.2916 130.874 82.6255C130.927 82.56 130.963 82.5164 131.018 82.4707C131.053 82.4271 131.106 82.3616 131.159 82.2962L150.418 59.9507C155.387 54.1784 159.043 45.3908 155.286 39.7785C154.01 37.877 151.723 36.7803 149.434 36.9814C146.111 37.391 143.699 40.3992 144.052 43.7551C144.214 45.2949 144.941 46.7153 146.104 47.7306C147.114 48.6223 147.217 50.1683 146.33 51.1997C145.44 52.2115 143.897 52.314 142.868 51.4244C140.782 49.5881 139.479 47.0507 139.188 44.287C138.563 38.3451 142.778 32.9716 148.649 32.174C148.708 32.1677 148.768 32.1615 148.827 32.1553L149.024 32.1346C149.083 32.1283 149.142 32.1221 149.201 32.1159C153.175 31.8373 157.122 33.7572 159.343 37.0761C164.565 44.8694 160.477 55.7983 154.125 63.1931L134.915 85.4336C134.809 85.5645 134.672 85.7785 134.454 85.9811C133.677 86.9211 133.159 88.0535 132.966 89.2513C132.943 89.4134 132.94 89.5734 132.959 89.7511C133.082 90.9158 134.127 91.7638 135.289 91.6415C135.939 91.573 136.363 91.249 136.594 90.9851C137.527 90.0087 139.076 89.9655 140.049 90.881C141.024 91.8163 141.068 93.3685 140.155 94.3428C139.008 95.5612 137.455 96.3235 135.8 96.4976C131.961 96.9217 128.498 94.1126 128.093 90.2632ZM134.864 85.5188C134.862 85.4991 134.862 85.4991 134.864 85.5188V85.5188Z" fill="#FFCE26"/>
<path d="M87.657 41.4081L76.6055 42.5713C77.7939 53.8629 81.1347 64.409 86.1705 73.8386C85.244 70.9023 84.6005 67.8165 84.266 64.6383C83.4017 56.4262 84.6795 48.5076 87.657 41.4081Z" fill="#FFDF5A"/>
<path d="M97.4461 170.752L142.617 165.998L139.64 137.71C139.64 137.71 127.508 167.588 97.4461 170.752Z" fill="#8D492B"/>
<path d="M134.201 144.887L101.263 148.354L102.964 164.521L135.902 161.054L134.201 144.887Z" fill="#FFCE26"/>
<path d="M56.4345 51.1415C58.0118 47.2032 61.692 44.3209 65.8735 43.7411C65.9326 43.7349 65.9917 43.7287 66.0705 43.7204L66.2675 43.6997C66.3266 43.6934 66.3857 43.6872 66.4448 43.681C67.7294 43.5857 68.9778 43.7138 70.164 44.0081C68.3254 42.6248 65.9976 41.8918 63.5444 42.0502C63.4853 42.0564 63.4459 42.0606 63.3868 42.0668L63.2095 42.0855C63.1504 42.0917 63.111 42.0958 63.0519 42.102C59.5185 42.5937 56.4271 45.0148 55.085 48.3495C53.6694 51.9315 54.0704 55.7414 55.5994 59.2929C55.1531 56.5655 55.3609 53.8093 56.4345 51.1415Z" fill="#FFDF5A"/>
<path d="M95.8117 92.963C98.9104 95.9102 102.403 98.4367 106.2 100.452L106.242 100.468C108.413 101.796 109.646 103.862 109.867 105.954L109.869 105.974C111.016 106.272 112.242 106.383 113.503 106.25C114.764 106.117 115.94 105.754 117 105.223L116.998 105.204C116.778 103.111 117.552 100.814 119.401 99.0827L119.438 99.0588C125.955 93.6027 130.915 86.4143 133.703 78.2768C138.573 64.1721 140.502 48.82 138.838 33.0078C130.408 91.8167 95.9693 92.9465 95.8117 92.963Z" fill="#FCC200"/>
<path d="M121.078 60.1802L120.945 58.9104L121.722 58.8286C122.403 58.7569 122.899 58.151 122.828 57.4767L122.391 53.3195C122.32 52.6452 121.709 52.1559 121.027 52.2276L108.069 53.5914L107.154 44.7987C107.125 44.5162 106.989 44.2651 106.771 44.09C106.55 43.9125 106.261 43.8271 105.977 43.857C105.693 43.8869 105.436 44.0284 105.256 44.2548L99.7956 51.1089L86.7479 67.3676C86.4759 67.7075 86.437 68.1535 86.6472 68.5328C86.8574 68.9122 87.2591 69.1191 87.6942 69.0733L101.338 67.6374L101.535 69.5121C101.591 70.0424 102.071 70.427 102.607 70.3706L104.271 70.1955C104.264 70.211 102.973 74.0006 102.973 74.0006C102.87 74.4157 102.994 74.8377 103.305 75.1311C103.562 75.3735 103.91 75.4917 104.262 75.4547L110.964 74.7466L109.369 76.0098C109.092 76.2288 108.922 76.5552 108.903 76.9048C108.884 77.2544 109.017 77.5961 109.268 77.8419C111.603 80.1342 114.818 81.2509 118.09 80.9065C118.358 80.8783 118.629 80.8403 118.895 80.7921C121.627 80.3038 124.041 78.8319 125.693 76.6506C127.345 74.4708 128.096 71.7646 127.809 69.0331C127.378 64.9437 124.679 61.6281 121.078 60.1762" fill="white"/>
<path d="M100.932 62.2534L96.7491 62.6936L100.497 58.1228L99.9466 52.8955L87.979 67.8092L101.368 66.4L100.932 62.2534Z" fill="#DD2826"/>
<path d="M100.908 51.6949L102.742 69.1221L108.373 68.5309L105.963 45.3496L100.908 51.6949Z" fill="#FFCE26"/>
<path d="M114.336 60.8471L102.009 62.1445L102.445 66.2858L114.772 64.9884L114.336 60.8471Z" fill="#DD2826"/>
<path d="M121.155 53.4501L108.016 54.833L108.711 61.4407L114.347 60.8475L114.085 58.3976L121.593 57.6073L121.155 53.4501Z" fill="#FFCE26"/>
<path d="M115.96 60.6694C115.802 60.6859 115.6 60.7127 115.413 60.7404L115.849 64.879C116.049 64.8391 116.273 64.8048 116.448 64.7863C119.22 64.4946 121.72 66.6685 122.034 69.6439C122.347 72.6193 120.354 75.2662 117.582 75.5579C116.105 75.7133 114.705 75.1682 113.673 74.1748L110.143 76.9713C112.13 78.9218 114.957 80.0039 117.96 79.6877C123.269 79.129 127.126 74.4187 126.573 69.1661C126.02 63.9136 121.268 60.1093 115.959 60.6682" fill="#DD2826"/>
<path d="M105.397 70.5606L105.555 70.544C105.622 70.5369 105.671 70.5601 105.698 70.6125L107.648 73.8831C107.666 73.9122 107.665 73.9406 107.646 73.9668C107.627 73.9931 107.601 74.0079 107.572 74.011L106.716 74.101C106.649 74.1081 106.6 74.0876 106.573 74.0379L106.482 73.8657C106.446 73.8142 106.402 73.7906 106.349 73.7961L105.308 73.9057C105.247 73.9121 105.21 73.9443 105.193 74.0014L105.139 74.1889C105.115 74.244 105.072 74.2741 105.012 74.2804L104.15 74.3711C104.121 74.3742 104.094 74.3649 104.071 74.3431C104.048 74.3212 104.04 74.2938 104.049 74.2619L105.275 70.657C105.299 70.5992 105.342 70.5664 105.401 70.5602M105.466 73.1225C105.46 73.1366 105.463 73.1512 105.474 73.1635C105.484 73.1758 105.497 73.1812 105.512 73.1796L105.996 73.1287C106.014 73.1268 106.027 73.1187 106.033 73.1046C106.038 73.0906 106.036 73.076 106.028 73.0633L105.727 72.5319C105.717 72.5154 105.704 72.5087 105.685 72.5107C105.666 72.5127 105.654 72.5221 105.649 72.5401L105.465 73.1226L105.466 73.1225Z" fill="#DD2826"/>
<path d="M107.574 70.3594C107.595 70.3383 107.62 70.3263 107.649 70.3232L107.75 70.3126C107.792 70.3082 107.827 70.3166 107.855 70.3379L109.929 71.8077C109.941 71.8173 109.957 71.8182 109.977 71.8134C109.997 71.8073 110.006 71.7942 110.004 71.7742L109.838 70.1926C109.831 70.1273 109.864 70.0915 109.934 70.0841L110.75 69.9982C110.78 69.9951 110.808 70.0016 110.831 70.0179C110.856 70.0342 110.869 70.057 110.872 70.0837L111.235 73.5254C111.237 73.5534 111.229 73.5772 111.208 73.5983C111.187 73.6193 111.163 73.6314 111.133 73.6345L111.02 73.6464C110.971 73.6515 110.929 73.6397 110.896 73.6122L108.855 72.1282C108.839 72.1164 108.821 72.1143 108.803 72.1229C108.785 72.1316 108.777 72.1472 108.779 72.1672L108.947 73.7648C108.95 73.7928 108.942 73.8166 108.923 73.8374C108.905 73.8582 108.881 73.8702 108.85 73.8734L108.028 73.9599C107.998 73.963 107.97 73.9565 107.947 73.9402C107.922 73.9239 107.909 73.9011 107.906 73.8744L107.544 70.4327C107.541 70.4047 107.549 70.3809 107.57 70.3598M109.452 69.2578C109.538 69.2487 109.627 69.2097 109.719 69.1408C109.776 69.1037 109.822 69.1084 109.857 69.1572L110.077 69.4156C110.112 69.4578 110.11 69.4957 110.073 69.5306C109.925 69.7159 109.739 69.8204 109.514 69.8441C109.386 69.8575 109.252 69.8406 109.111 69.7922C109.007 69.7546 108.921 69.7394 108.85 69.7469C108.76 69.7564 108.68 69.7877 108.609 69.8396C108.555 69.8735 108.511 69.8661 108.476 69.8172L108.255 69.5589C108.224 69.5164 108.227 69.4797 108.26 69.4492C108.401 69.2781 108.578 69.1814 108.788 69.1593C108.916 69.1458 109.05 69.1627 109.192 69.211C109.311 69.2471 109.397 69.2623 109.453 69.2563" fill="#DD2826"/>
<path d="M111.524 71.6034C111.471 71.0984 111.605 70.6666 111.928 70.3079C112.251 69.9492 112.692 69.7398 113.251 69.6809C113.81 69.6221 114.285 69.7351 114.676 70.0187C115.067 70.3023 115.288 70.6966 115.341 71.2016L115.373 71.5001C115.426 72.0091 115.292 72.4409 114.969 72.7982C114.645 73.1556 114.204 73.3637 113.645 73.4225C113.086 73.4813 112.611 73.3696 112.221 73.0874C111.83 72.8052 111.609 72.4095 111.555 71.9018L111.524 71.6034ZM112.609 71.791C112.637 72.0628 112.735 72.2627 112.902 72.3906C113.069 72.5185 113.286 72.5685 113.552 72.5404C113.819 72.5123 114.02 72.4184 114.157 72.2585C114.294 72.0986 114.348 71.8828 114.319 71.6109L114.288 71.3125C114.26 71.0486 114.162 70.8502 113.995 70.7182C113.827 70.5863 113.611 70.535 113.344 70.563C113.078 70.5911 112.877 70.6864 112.74 70.8503C112.603 71.0142 112.55 71.2287 112.577 71.4925L112.609 71.791Z" fill="#DD2826"/>
<path d="M118.202 69.5504C118.263 69.5857 118.275 69.6303 118.24 69.6826L117.811 70.3218C117.795 70.3477 117.771 70.3638 117.737 70.3686C117.703 70.3735 117.673 70.3673 117.644 70.3502C117.473 70.2402 117.291 70.1946 117.1 70.2148C116.98 70.2274 116.888 70.2586 116.822 70.306C116.756 70.3546 116.729 70.4168 116.737 70.4914L116.737 70.4968C116.746 70.582 116.807 70.6417 116.918 70.6758C117.029 70.7099 117.229 70.7333 117.516 70.749C118.267 70.7817 118.672 71.0827 118.732 71.6529L118.734 71.6743C118.773 72.0487 118.655 72.3576 118.377 72.6024C118.099 72.8472 117.723 72.9945 117.25 73.0442C117.026 73.0679 116.786 73.0541 116.531 73.0027C116.276 72.9514 116.046 72.8666 115.836 72.7499C115.771 72.715 115.759 72.6677 115.798 72.6084L116.23 71.9579C116.243 71.9391 116.267 71.9258 116.297 71.9199C116.329 71.9125 116.357 71.9177 116.382 71.9313C116.641 72.0912 116.903 72.158 117.165 72.1304C117.352 72.1107 117.483 72.0713 117.557 72.0136C117.63 71.9561 117.664 71.8919 117.657 71.8239L117.656 71.808C117.646 71.7147 117.593 71.6555 117.498 71.6292C117.402 71.6029 117.216 71.5794 116.942 71.5598C116.918 71.5582 116.902 71.5572 116.889 71.5545C116.61 71.5313 116.415 71.502 116.305 71.4651C115.935 71.341 115.727 71.0584 115.681 70.6187L115.679 70.5987C115.642 70.2483 115.746 69.9531 115.99 69.7145C116.235 69.4746 116.577 69.3322 117.016 69.2859C117.425 69.2429 117.821 69.3318 118.205 69.5514" fill="#DD2826"/>
<path d="M127.399 147.979L106.704 150.157C105.988 150.232 105.466 150.813 105.532 151.455L128.815 149.005C128.746 148.363 128.113 147.903 127.399 147.979Z" fill="#DD2826"/>
<path d="M107.865 161.199L128.561 159.021C129.274 158.946 129.8 158.364 129.732 157.722L106.448 160.173C106.517 160.815 107.151 161.274 107.865 161.199Z" fill="#DD2826"/>
<path d="M111.814 155.207C111.704 154.164 110.746 153.41 109.675 153.522C108.604 153.635 107.824 154.572 107.934 155.615C108.044 156.658 109.002 157.412 110.073 157.299C111.144 157.187 111.924 156.251 111.814 155.207ZM127.326 153.574C127.216 152.531 126.258 151.777 125.187 151.89C124.116 152.002 123.335 152.94 123.444 153.983C123.554 155.026 124.512 155.78 125.585 155.667C126.657 155.554 127.436 154.619 127.326 153.574ZM128.618 153.438C128.802 155.178 127.503 156.739 125.717 156.927C123.932 157.115 122.335 155.858 122.152 154.119C121.969 152.379 123.268 150.819 125.055 150.631C126.842 150.443 128.436 151.7 128.618 153.438ZM113.108 155.071C113.291 156.811 111.991 158.372 110.205 158.56C108.42 158.747 106.825 157.491 106.641 155.751C106.458 154.012 107.758 152.452 109.543 152.264C111.328 152.076 112.925 153.333 113.108 155.071ZM129.669 157.142L128.874 149.587L124.449 150.053C123.97 150.107 122.993 150.302 122.128 151.523L120.355 154.35L122.248 156.259C122.497 156.51 122.487 156.911 122.229 157.153C121.971 157.397 121.558 157.392 121.309 157.142L119.641 155.458L118.674 156.962L118.665 156.976L118.361 157.451C118.283 157.573 118.171 157.659 118.043 157.708C117.858 157.776 117.645 157.764 117.464 157.656C117.267 157.536 117.161 157.33 117.161 157.119C117.162 157.004 117.193 156.887 117.261 156.783L117.803 155.938L118.712 154.523L117.922 153.719L118.616 152.591L119.427 153.414L120.952 151.058C120.994 150.993 121.285 150.464 121.645 150.348L105.593 152.037L106.388 159.592L110.966 159.11C111.48 159.025 112.343 158.747 113.118 157.653L114.891 154.826L112.998 152.917C112.749 152.666 112.757 152.264 113.017 152.022C113.275 151.778 113.686 151.783 113.935 152.033L115.605 153.717L116.571 152.214L116.581 152.198L116.887 151.724C116.964 151.603 117.077 151.516 117.206 151.467C117.389 151.398 117.603 151.411 117.782 151.52C117.978 151.64 118.086 151.845 118.084 152.057C118.084 152.172 118.052 152.288 117.985 152.392L117.445 153.236L116.533 154.652L117.335 155.461L116.64 156.588L115.821 155.761L114.293 158.117C114.252 158.184 113.941 158.742 113.567 158.835L129.671 157.14L129.669 157.142Z" fill="#DD2826"/>
</g>
<g filter="url(#filter5_d_305_66383)">
<path d="M78.0527 198.75V201.47L73.6927 201.41V212.75H70.4927V201.41L66.1327 201.47V198.75H78.0527ZM86.123 202.71H89.123V210.41C89.123 211.47 89.283 212.25 89.603 212.77H87.763C86.783 212.77 86.243 212.23 86.123 211.17C85.283 212.35 84.203 212.93 82.863 212.93C80.603 212.93 79.323 211.47 79.323 208.69V202.71H80.503C81.723 202.71 82.323 203.29 82.323 204.43V208.41C82.323 209.71 82.823 210.37 83.843 210.37C84.863 210.37 85.623 209.93 86.123 209.03V202.71ZM92.7487 205.11L90.7487 205.15V202.71L92.7487 202.75L93.6687 199.31H95.7087V202.79L98.9687 202.71V205.15L95.7087 205.09V209.37C95.7087 210.11 96.0887 210.47 96.8487 210.47C97.4487 210.47 98.0087 210.31 98.5087 209.99C99.0687 211.03 99.1687 212.19 98.2287 212.61C97.7087 212.85 96.9687 212.97 95.9887 212.97C93.9087 212.97 92.7487 212.09 92.7487 209.55V205.11ZM103.791 205.71C103.391 206.21 103.191 206.89 103.191 207.75C103.191 208.61 103.391 209.27 103.791 209.77C104.171 210.27 104.751 210.53 105.491 210.53C106.231 210.53 106.811 210.27 107.211 209.77C107.591 209.27 107.791 208.61 107.791 207.75C107.791 206.89 107.591 206.21 107.211 205.71C106.811 205.21 106.231 204.97 105.491 204.97C104.751 204.97 104.171 205.21 103.791 205.71ZM101.571 211.57C100.651 210.65 100.191 209.37 100.191 207.75C100.191 206.13 100.651 204.85 101.571 203.91C102.491 202.99 103.791 202.53 105.491 202.53C107.191 202.53 108.491 202.99 109.411 203.91C110.331 204.85 110.791 206.13 110.791 207.75C110.791 209.37 110.331 210.65 109.411 211.57C108.491 212.51 107.191 212.97 105.491 212.97C103.791 212.97 102.491 212.51 101.571 211.57ZM115.742 204.43C116.282 203.45 117.422 202.53 118.762 202.53C119.822 202.53 120.642 203.15 120.642 204.33C120.642 204.95 120.502 205.55 120.242 206.11C119.722 205.63 119.062 205.39 118.242 205.39C117.222 205.39 116.402 205.79 115.742 206.57V212.75H112.742V202.71H113.942C115.162 202.71 115.642 203.29 115.742 204.43ZM125.02 212.75H122.02V202.71H123.2C124.42 202.71 125.02 203.29 125.02 204.43V212.75ZM122.22 198.93C121.88 199.19 121.72 199.61 121.72 200.15C121.72 201.21 122.46 201.75 123.5 201.75C124.54 201.75 125.3 201.21 125.3 200.15C125.3 199.05 124.56 198.53 123.5 198.53C122.96 198.53 122.54 198.67 122.22 198.93ZM136.687 212.77H134.927C133.947 212.77 133.407 212.23 133.287 211.17C132.627 212.35 131.567 212.93 130.107 212.93C129.207 212.93 128.447 212.67 127.827 212.15C127.207 211.65 126.887 210.93 126.887 210.01C126.887 207.75 128.527 206.61 131.827 206.61H133.267C133.267 205.35 132.667 204.85 131.367 204.85C130.127 204.85 129.067 205.15 128.167 205.73C127.867 205.33 127.707 204.83 127.707 204.25C127.707 203.75 127.887 203.41 128.227 203.19C129.027 202.73 130.167 202.49 131.627 202.49C134.507 202.49 136.207 203.93 136.207 206.51V210.41C136.207 211.47 136.367 212.25 136.687 212.77ZM130.787 210.67C131.767 210.67 132.607 210.25 133.287 209.39V208.31H131.907C130.407 208.31 129.647 208.77 129.647 209.69C129.647 210.31 130.127 210.67 130.787 210.67ZM141.66 200.43V212.75H138.7V198.71H139.84C141.06 198.71 141.66 199.29 141.66 200.43Z" fill="white"/>
</g>
<defs>
<filter id="filter0_d_305_66383" x="0.5" y="0" width="232.5" height="287.25" filterUnits="userSpaceOnUse" color-interpolation-filters="sRGB">
<feFlood flood-opacity="0" result="BackgroundImageFix"/>
<feColorMatrix in="SourceAlpha" type="matrix" values="0 0 0 0 0 0 0 0 0 0 0 0 0 0 0 0 0 0 127 0" result="hardAlpha"/>
<feOffset dx="4" dy="4"/>
<feComposite in2="hardAlpha" operator="out"/>
<feColorMatrix type="matrix" values="0 0 0 0 0 0 0 0 0 0 0 0 0 0 0 0 0 0 0.25 0"/>
<feBlend mode="normal" in2="BackgroundImageFix" result="effect1_dropShadow_305_66383"/>
<feBlend mode="normal" in="SourceGraphic" in2="effect1_dropShadow_305_66383" result="shape"/>
</filter>
<filter id="filter1_i_305_66383" x="44.4561" y="105.206" width="62.0905" height="62.0905" filterUnits="userSpaceOnUse" color-interpolation-filters="sRGB">
<feFlood flood-opacity="0" result="BackgroundImageFix"/>
<feBlend mode="normal" in="SourceGraphic" in2="BackgroundImageFix" result="shape"/>
<feColorMatrix in="SourceAlpha" type="matrix" values="0 0 0 0 0 0 0 0 0 0 0 0 0 0 0 0 0 0 127 0" result="hardAlpha"/>
<feOffset dx="0.966443" dy="1.93289"/>
<feGaussianBlur stdDeviation="0.483222"/>
<feComposite in2="hardAlpha" operator="arithmetic" k2="-1" k3="1"/>
<feColorMatrix type="matrix" values="0 0 0 0 0.9 0 0 0 0 0.699876 0 0 0 0 0.075 0 0 0 1 0"/>
<feBlend mode="normal" in2="shape" result="effect1_innerShadow_305_66383"/>
</filter>
<filter id="filter2_d_305_66383" x="138.128" y="149.878" width="37.2002" height="37.2002" filterUnits="userSpaceOnUse" color-interpolation-filters="sRGB">
<feFlood flood-opacity="0" result="BackgroundImageFix"/>
<feColorMatrix in="SourceAlpha" type="matrix" values="0 0 0 0 0 0 0 0 0 0 0 0 0 0 0 0 0 0 127 0" result="hardAlpha"/>
<feOffset dx="4" dy="4"/>
<feComposite in2="hardAlpha" operator="out"/>
<feColorMatrix type="matrix" values="0 0 0 0 0 0 0 0 0 0 0 0 0 0 0 0 0 0 0.25 0"/>
<feBlend mode="normal" in2="BackgroundImageFix" result="effect1_dropShadow_305_66383"/>
<feBlend mode="normal" in="SourceGraphic" in2="effect1_dropShadow_305_66383" result="shape"/>
</filter>
<filter id="filter3_i_305_66383" x="140.638" y="152.387" width="28.6272" height="28.6272" filterUnits="userSpaceOnUse" color-interpolation-filters="sRGB">
<feFlood flood-opacity="0" result="BackgroundImageFix"/>
<feBlend mode="normal" in="SourceGraphic" in2="BackgroundImageFix" result="shape"/>
<feColorMatrix in="SourceAlpha" type="matrix" values="0 0 0 0 0 0 0 0 0 0 0 0 0 0 0 0 0 0 127 0" result="hardAlpha"/>
<feOffset dx="0.445595" dy="0.891191"/>
<feGaussianBlur stdDeviation="0.222798"/>
<feComposite in2="hardAlpha" operator="arithmetic" k2="-1" k3="1"/>
<feColorMatrix type="matrix" values="0 0 0 0 0.9 0 0 0 0 0.699876 0 0 0 0 0.075 0 0 0 1 0"/>
<feBlend mode="normal" in2="shape" result="effect1_innerShadow_305_66383"/>
</filter>
<filter id="filter4_d_305_66383" x="53.2568" y="32.0889" width="112.471" height="147.277" filterUnits="userSpaceOnUse" color-interpolation-filters="sRGB">
<feFlood flood-opacity="0" result="BackgroundImageFix"/>
<feColorMatrix in="SourceAlpha" type="matrix" values="0 0 0 0 0 0 0 0 0 0 0 0 0 0 0 0 0 0 127 0" result="hardAlpha"/>
<feOffset dx="4" dy="4"/>
<feComposite in2="hardAlpha" operator="out"/>
<feColorMatrix type="matrix" values="0 0 0 0 0 0 0 0 0 0 0 0 0 0 0 0 0 0 0.25 0"/>
<feBlend mode="normal" in2="BackgroundImageFix" result="effect1_dropShadow_305_66383"/>
<feBlend mode="normal" in="SourceGraphic" in2="effect1_dropShadow_305_66383" result="shape"/>
</filter>
<filter id="filter5_d_305_66383" x="66.1328" y="198.53" width="77.5273" height="16.4395" filterUnits="userSpaceOnUse" color-interpolation-filters="sRGB">
<feFlood flood-opacity="0" result="BackgroundImageFix"/>
<feColorMatrix in="SourceAlpha" type="matrix" values="0 0 0 0 0 0 0 0 0 0 0 0 0 0 0 0 0 0 127 0" result="hardAlpha"/>
<feOffset dx="2" dy="2"/>
<feComposite in2="hardAlpha" operator="out"/>
<feColorMatrix type="matrix" values="0 0 0 0 0 0 0 0 0 0 0 0 0 0 0 0 0 0 0.25 0"/>
<feBlend mode="normal" in2="BackgroundImageFix" result="effect1_dropShadow_305_66383"/>
<feBlend mode="normal" in="SourceGraphic" in2="effect1_dropShadow_305_66383" result="shape"/>
</filter>
<linearGradient id="paint0_linear_305_66383" x1="55.9739" y1="102.257" x2="90.2244" y2="168.153" gradientUnits="userSpaceOnUse">
<stop stop-color="#F6D738"/>
<stop offset="0.646619" stop-color="#F39F18"/>
</linearGradient>
<linearGradient id="paint1_linear_305_66383" x1="150.727" y1="149.163" x2="157.181" y2="182.791" gradientUnits="userSpaceOnUse">
<stop stop-color="#F6D738"/>
<stop offset="0.646619" stop-color="#F39F18"/>
</linearGradient>
<clipPath id="clip0_305_66383">
<rect width="72" height="72" fill="white" transform="translate(34 105.609) rotate(-8.67502)"/>
</clipPath>
</defs>
</svg>
